<svg enable-background="new 0 0 76.00 76.00" height="76" viewBox="0 0 76 76" width="76" xmlns="http://www.w3.org/2000/svg"><path d="m22.5223 26.7985c2.4667-.3029 4.8211 2.34 5.2586 5.9031s-1.2076 6.6971-3.6743 7c-2.4668.3028-4.8211-2.3401-5.2586-5.9032s1.2075-6.6971 3.6743-6.9999zm10.5421-8.7985c2.4853 0 4.5 3.5817 4.5 8s-2.0147 8-4.5 8-4.5-3.5817-4.5-8 2.0147-8 4.5-8zm11.8081 1.5195c2.4792.1734 4.2392 3.8869 3.931 8.2944s-2.5679 7.84-5.0471 7.6666c-2.4792-.1733-4.2392-3.8869-3.931-8.2944s2.5679-7.84 5.0471-7.6666zm9.6157 9.8751c2.3408.5404 3.5335 4.0322 2.6638 7.7991-.8696 3.7669-3.4723 6.3825-5.8132 5.8421-2.3408-.5405-3.5335-4.0323-2.6638-7.7992s3.4723-6.3824 5.8132-5.842zm-18.4238 26.1054s-7.25 1.5-9.25 1.5-6.75-1.5-6.75-6.5c0-6 5-5 8-8s3-7 9-7 7 5 10 8 7 3.75 7 7.75-3 5.75-8 5.75-3-1.5-10-1.5z" stroke-linejoin="round"/></svg>